# Blender v2.76 (sub 0) OBJ File: 'SceneryTri.blend'
# www.blender.org
mtllib 10.mtl
o 10_Plane.011
v -310.168945 86.728790 264.468353
v 283.413086 86.728790 264.468353
v -356.408691 86.728790 -267.473694
v 267.595703 86.728790 -270.751526
v -356.408691 86.728790 68.556732
v -124.418945 86.728790 274.354706
v 320.216309 86.728790 68.556732
v -184.373047 86.728790 -310.071594
v -156.640137 42.580761 99.760834
v -310.168945 3.158638 264.468353
v 283.413086 3.158638 264.468353
v -356.408691 3.158638 -267.473694
v 267.595703 3.158638 -270.751526
v -356.408691 3.158638 68.556732
v -124.418945 3.158638 274.354706
v 320.216309 3.158638 68.556732
v -184.373047 3.158638 -310.071594
v 284.020508 86.728790 -152.153976
v -377.624023 86.728790 -153.299850
v -182.721680 54.069611 -102.908249
v 284.020508 3.158638 -152.153976
v -377.624023 3.158638 -153.299850
v 126.493172 86.728790 292.165375
v 76.325195 86.728790 -334.240051
v 111.088867 45.707748 106.639374
v 126.493172 3.158638 292.165375
v 101.308594 -0.776085 -340.166809
v 5.385742 55.424843 -149.010300
v -186.020508 65.836250 -315.865540
v 275.285645 65.836250 -276.545227
v -126.066406 65.836250 280.354706
v -318.315430 65.836250 270.468353
v -364.555176 65.836250 -273.267639
v 291.103027 65.836250 270.468353
v 327.906738 65.836250 70.213104
v -364.555176 65.836250 70.213104
v 291.710449 65.836250 -154.222702
v -385.770508 65.836250 -155.368576
v 129.053711 65.836250 298.165375
v 78.885254 65.836250 -340.033997
v 326.465332 86.728790 -36.708282
v 326.465332 3.158638 -36.708282
v 161.661133 49.777737 -19.210236
v 334.156250 65.836250 -36.914459
v 4.512695 41.734451 164.810883
v 31.606443 86.728790 278.316864
v 31.606443 3.158638 278.316864
v 32.062988 65.836250 284.316864
v -150.517578 6.278049 88.737762
v -174.755859 9.957554 -95.434006
v 91.077148 7.817368 97.569794
v -4.118652 9.497440 -137.826218
v 138.111328 8.581085 -20.318390
v -4.039062 7.552040 147.330902
v 62.086914 49.949459 -71.806427
v 45.559570 6.387436 -66.768341
vt 0.568341 0.589166
vt 0.698684 0.636431
vt 0.665266 0.682624
vt 0.488134 0.540621
vt 0.454258 0.638682
vt 0.389279 0.589611
vt 0.484896 0.362447
vt 0.568047 0.370485
vt 0.529999 0.451985
vt 0.749192 0.444498
vt 0.747884 0.534138
vt 0.653480 0.487320
vt 0.840664 0.300911
vt 0.841562 0.287830
vt 0.878813 0.286714
vt 0.658205 0.374920
vt 0.607648 0.361196
vt 0.614196 0.345207
vt 0.938343 0.300911
vt 0.938204 0.287892
vt 0.974849 0.287622
vt 0.699776 0.386091
vt 0.663046 0.358477
vt 0.073895 0.987682
vt 0.017030 0.982893
vt 0.019778 0.965329
vt 0.768979 0.986493
vt 0.719599 0.984658
vt 0.722325 0.958619
vt 0.103900 0.989747
vt 0.075448 0.970045
vt 0.862441 0.986672
vt 0.862125 0.960593
vt 0.945147 0.959248
vt 0.138857 0.990447
vt 0.139400 0.972747
vt 0.172921 0.974303
vt 0.770193 0.960436
vt 0.430589 0.434784
vt 0.605469 0.562249
vt 0.725447 0.393294
vt 0.729187 0.376558
vt 0.771273 0.387005
vt 0.883342 0.300523
vt 0.691800 0.404076
vt 0.612830 0.444418
vt 0.573745 0.687401
vt 0.572892 0.698713
vt 0.448221 0.648490
vt 0.697751 0.394690
vt 0.389934 0.537287
vt 0.378298 0.536060
vt 0.420411 0.428839
vt 0.708487 0.643617
vt 0.759340 0.535237
vt 0.745737 0.589431
vt 0.378851 0.594249
vt 0.759340 0.439837
vt 0.569269 0.359213
vt 0.649648 0.380302
vt 0.479599 0.352346
vt 0.670883 0.692612
vt 0.734944 0.585091
vt 0.658845 0.552489
vt 0.104932 0.972079
vt 0.646127 0.391137
vt 0.704063 0.369501
vt 0.947064 0.712825
vt 0.955565 0.657327
vt 0.974064 0.663922
vt 0.985295 0.226873
vt 0.987384 0.246601
vt 0.977416 0.246409
vt 0.983240 0.051727
vt 0.914440 0.058196
vt 0.915972 0.045311
vt 0.956062 0.762280
vt 0.964966 0.715646
vt 0.856541 0.048662
vt 0.863317 0.037240
vt 0.307853 0.947366
vt 0.296196 0.939792
vt 0.319240 0.891194
vt 0.975750 0.228547
vt 0.978251 0.207277
vt 0.976294 0.300666
vt 0.947208 0.985356
vt 0.173411 0.992069
vt 0.768861 0.404098
vt 0.978184 0.037240
vt 0.972096 0.759487
vt 0.333709 0.894058
vt 0.987384 0.203682
vn -0.163300 0.864300 0.475600
vn 0.460100 0.883300 -0.089800
vn 0.469200 0.785300 -0.403900
vn 0.380000 0.883100 0.275100
vn -0.089800 0.830700 -0.549300
vn -0.431200 0.791700 -0.432600
vn -0.362200 0.792500 0.490600
vn 0.004700 0.874500 0.484900
vn 0.427200 0.835000 -0.346800
vn 0.414700 0.792800 0.446600
vn 0.496500 0.866200 0.056600
vn -0.407200 0.851700 -0.329700
vn 0.773000 0.140500 -0.618600
vn 0.782300 -0.150500 -0.604400
vn 0.154100 0.025400 -0.987700
vn -0.039200 0.092700 0.994900
vn -0.653400 0.129000 0.745900
vn -0.622700 -0.151900 0.767600
vn -0.166000 0.090800 -0.981900
vn -0.165700 -0.090300 -0.982000
vn -0.712700 -0.151000 -0.685000
vn -0.085400 0.091700 0.992100
vn -0.038800 -0.096100 0.994600
vn 0.985800 0.115800 0.121400
vn 0.704700 0.127400 0.698000
vn 0.689400 -0.149000 0.708800
vn -0.991600 0.119700 -0.048200
vn -0.728400 0.130100 -0.672700
vn 0.983900 0.111200 -0.139400
vn 0.985000 -0.123700 0.120500
vn -0.979300 0.121700 0.161600
vn -0.978100 -0.131400 0.161200
vn 0.963300 0.120600 -0.239500
vn 0.962400 -0.126000 -0.240700
vn -0.990500 -0.130600 -0.042000
vn -0.486600 0.868900 0.090400
vn -0.436600 0.707000 0.556400
vn 0.023100 0.091400 0.995500
vn 0.011800 -0.096700 0.995200
vn 0.091100 0.148500 -0.984700
vn -0.023200 0.838300 0.544600
vn -0.043500 0.823800 -0.565100
vn 0.057000 0.806100 -0.588900
vn -0.533000 0.845900 -0.018000
vn 0.534100 0.841400 -0.081600
vn -0.399600 0.906100 0.138900
vn 0.981800 -0.122500 -0.144900
vn -0.030600 0.910000 0.413300
vn -0.084100 -0.094300 0.992000
vn -0.791500 0.450900 0.412500
vn -0.288900 0.293300 0.911300
vn 0.784800 0.294400 -0.545400
vn -0.634600 0.488700 -0.598700
vn 0.014400 0.450300 -0.892800
vn 0.814300 0.236800 0.529800
vn -0.635700 0.322300 0.701400
usemtl Material
s 1
f 28/1/1 18/2/2 4/3/3
f 20/4/4 8/5/5 3/6/6
f 1/7/7 6/8/8 9/9/9
f 2/10/10 7/11/11 25/12/12
f 30/13/13 13/14/14 27/15/15
f 31/16/16 32/17/17 10/18/18
f 29/19/19 17/20/20 12/21/21
f 48/22/22 31/16/16 15/23/23
f 35/24/24 34/25/25 11/26/26
f 38/27/27 33/28/28 12/29/21
f 44/30/29 35/24/24 16/31/30
f 36/32/31 14/33/32 10/34/18
f 37/35/33 21/36/34 13/37/14
f 36/32/31 38/27/27 22/38/35
f 5/39/36 9/9/9 20/4/4
f 55/40/37 18/2/2 28/1/1
f 5/39/36 1/7/7 9/9/9
f 39/41/38 26/42/39 11/43/26
f 40/44/40 27/15/15 17/20/20
f 23/45/41 25/12/12 45/46/42
f 28/1/1 24/47/43 8/5/5
f 24/47/43 40/48/40 29/49/19
f 2/10/10 23/45/41 39/50/38
f 19/51/44 38/52/27 36/53/31
f 4/3/3 18/2/2 37/54/33
f 1/7/7 5/39/36 36/53/31
f 7/11/11 35/55/24 44/56/29
f 3/6/6 33/57/28 38/52/27
f 2/10/10 34/58/25 35/55/24
f 6/8/8 31/59/16 48/60/22
f 3/6/6 8/5/5 29/49/19
f 1/7/7 32/61/17 31/59/16
f 4/3/3 30/62/13 40/48/40
f 19/51/44 20/4/4 3/6/6
f 24/47/43 28/1/1 4/3/3
f 23/45/41 2/10/10 25/12/12
f 41/63/45 44/56/29 37/54/33
f 7/11/11 41/63/45 43/64/46
f 37/35/33 44/30/29 42/65/47
f 23/45/41 46/66/48 48/60/22
f 6/8/8 46/66/48 45/46/42
f 48/22/22 47/67/49 26/42/39
f 25/68/12 43/69/46 53/70/50
f 55/71/37 28/72/1 52/73/51
f 20/74/4 9/75/9 49/76/52
f 45/77/42 25/68/12 51/78/53
f 9/75/9 45/79/42 54/80/54
f 20/81/4 50/82/55 52/83/51
f 55/71/37 56/84/56 53/85/50
f 43/64/46 41/63/45 18/2/2
f 40/44/40 30/13/13 27/15/15
f 15/23/23 31/16/16 10/18/18
f 33/86/28 29/19/19 12/21/21
f 47/67/49 48/22/22 15/23/23
f 16/31/30 35/24/24 11/26/26
f 22/38/35 38/27/27 12/29/21
f 42/65/47 44/30/29 16/31/30
f 32/87/17 36/32/31 10/34/18
f 30/88/13 37/35/33 13/37/14
f 14/33/32 36/32/31 22/38/35
f 19/51/44 5/39/36 20/4/4
f 34/89/25 39/41/38 11/43/26
f 29/19/19 40/44/40 17/20/20
f 46/66/48 23/45/41 45/46/42
f 20/4/4 28/1/1 8/5/5
f 8/5/5 24/47/43 29/49/19
f 34/58/25 2/10/10 39/50/38
f 5/39/36 19/51/44 36/53/31
f 30/62/13 4/3/3 37/54/33
f 32/61/17 1/7/7 36/53/31
f 41/63/45 7/11/11 44/56/29
f 19/51/44 3/6/6 38/52/27
f 7/11/11 2/10/10 35/55/24
f 46/66/48 6/8/8 48/60/22
f 33/57/28 3/6/6 29/49/19
f 6/8/8 1/7/7 31/59/16
f 24/47/43 4/3/3 40/48/40
f 18/2/2 41/63/45 37/54/33
f 25/12/12 7/11/11 43/64/46
f 21/36/34 37/35/33 42/65/47
f 39/50/38 23/45/41 48/60/22
f 9/9/9 6/8/8 45/46/42
f 39/41/38 48/22/22 26/42/39
f 51/78/53 25/68/12 53/70/50
f 56/84/56 55/71/37 52/73/51
f 50/90/55 20/74/4 49/76/52
f 54/91/54 45/77/42 51/78/53
f 49/76/52 9/75/9 54/80/54
f 28/92/1 20/81/4 52/83/51
f 43/93/46 55/71/37 53/85/50
f 55/40/37 43/64/46 18/2/2
