# Blender v2.76 (sub 0) OBJ File: 'SceneryTri.blend'
# www.blender.org
mtllib 4.mtl
o 4_Plane.009
v -190.671021 68.496880 201.574310
v 201.152100 68.496880 201.574310
v -190.671021 68.496880 -190.248947
v 179.521118 77.508926 -190.248947
v -158.288940 55.321148 -125.283676
v 5.240479 68.496880 225.805084
v 195.019043 64.333191 -125.283676
v 5.240479 68.496880 -209.367233
v -23.875122 55.321148 -141.806320
v -190.671021 0.838974 201.574310
v 201.152100 0.838974 201.574310
v -190.671021 0.838974 -190.248947
v 179.521118 0.838974 -190.248947
v -158.288940 0.838974 -91.124359
v 5.240479 0.838974 225.805084
v 194.180542 0.838974 -118.183151
v 5.240479 0.838974 -209.367233
v 5.240479 57.864922 -212.488754
v 182.642700 66.876968 -193.370468
v 5.240479 57.864922 228.926605
v -193.792603 57.864918 204.695831
v -193.792603 57.864922 -193.370468
v 204.273560 57.864922 204.695831
v 198.140503 53.701233 -126.825790
v -161.410522 44.689190 -126.825790
v -119.418091 68.496880 -220.889206
v -119.418091 0.838974 -220.889206
v -120.978882 57.864922 -224.010788
v -140.539673 45.073357 46.511932
v 202.934448 54.085400 46.511932
v -2.309204 45.073357 50.927155
v -140.539673 0.838974 50.903839
v 202.934448 0.838974 50.903839
v -143.661255 34.441399 47.232819
v 206.056030 43.453445 47.232819
v -184.690918 74.352760 158.902863
v -184.690918 0.838974 111.567841
v -187.812500 63.720802 160.590302
v 201.152100 74.352760 158.902863
v 5.240479 74.352760 172.001434
v 206.543945 0.838974 141.077423
v 204.273560 63.720802 160.590302
vt 0.947819 0.372310
vt 0.976160 0.386595
vt 0.982823 0.463092
vt 0.948510 0.476201
vt 0.983306 0.521403
vt 0.845278 0.534032
vt 0.853512 0.459127
vt 0.864754 0.357749
vt 0.534020 0.990195
vt 0.497087 0.990960
vt 0.498065 0.977310
vt 0.787919 0.056970
vt 0.720222 0.056524
vt 0.721268 0.037240
vt 0.534301 0.978389
vt 0.560176 0.979136
vt 0.787919 0.037687
vt 0.854570 0.037240
vt 0.506206 0.976100
vt 0.497087 0.974883
vt 0.497743 0.963075
vt 0.750536 0.340243
vt 0.745218 0.360041
vt 0.731617 0.352404
vt 0.565687 0.974226
vt 0.563971 0.963253
vt 0.579176 0.963075
vt 0.766867 0.295324
vt 0.743425 0.326533
vt 0.687027 0.798721
vt 0.681640 0.803433
vt 0.615359 0.714061
vt 0.949458 0.367088
vt 0.980741 0.382729
vt 0.971617 0.548062
vt 0.974218 0.552817
vt 0.940172 0.549322
vt 0.792514 0.361085
vt 0.788834 0.356987
vt 0.809425 0.355225
vt 0.767585 0.441662
vt 0.762091 0.440762
vt 0.988528 0.463080
vt 0.765389 0.524684
vt 0.760658 0.527707
vt 0.988528 0.523088
vt 0.560216 0.990950
vt 0.576214 0.979138
vt 0.940293 0.543147
vt 0.865019 0.352346
vt 0.844634 0.539739
vt 0.780693 0.533626
vt 0.758859 0.290680
vt 0.768527 0.272647
vt 0.529665 0.972010
vt 0.528962 0.963170
vt 0.810450 0.360550
vt 0.794429 0.446066
vt 0.790171 0.270398
vt 0.781586 0.251799
vt 0.782524 0.528493
vt 0.510302 0.963109
vt 0.855617 0.056524
vt 0.579853 0.976744
vt 0.620754 0.710164
vt 0.576551 0.990960
vt 0.795278 0.259271
vn 0.608300 0.793600 0.009300
vn 0.416900 0.804900 -0.422300
vn 0.033600 0.847000 -0.530500
vn -0.020900 0.993000 0.116500
vn -0.082100 0.805300 -0.587100
vn -0.556500 0.816200 -0.155100
vn -0.016600 0.996000 -0.087700
vn 0.612400 0.788500 -0.055900
vn 0.096300 0.112300 -0.989000
vn 0.663200 0.165600 -0.729800
vn 0.662500 -0.079700 -0.744800
vn 0.000000 0.113700 0.993500
vn -0.775300 0.135600 0.616800
vn -0.781000 -0.053300 0.622300
vn 0.100400 -0.054400 -0.993400
vn -0.153600 -0.058500 -0.986400
vn 0.000000 -0.054600 0.998500
vn 0.731400 -0.049400 0.680100
vn 0.987600 0.156200 0.016100
vn 0.735300 0.136000 0.664000
vn -0.942000 0.157000 0.296500
vn -0.915500 0.140700 -0.376800
vn -0.932500 -0.013700 -0.360800
vn 0.987500 0.097700 -0.123700
vn 0.988700 -0.092800 -0.117600
vn -0.975200 0.113900 -0.189800
vn -0.985000 0.054600 0.163300
vn -0.540000 0.805200 0.245000
vn -0.658000 0.740900 -0.134600
vn 0.521700 0.694600 0.495300
vn 0.000000 0.746000 0.665900
vn -0.568100 0.688300 0.451000
vn -0.162700 0.119600 -0.979400
vn 0.994400 0.099600 -0.034600
vn -0.964100 0.158300 -0.213300
vn -0.956800 -0.117900 -0.265700
vn -0.928200 0.143600 -0.343200
vn 0.996000 -0.076800 -0.045400
vn 0.564300 0.825100 -0.026200
vn -0.001200 0.998400 -0.056100
vn -0.585700 0.787600 -0.191300
vn 0.999300 0.008200 0.035000
usemtl Material
s 1
f 7/1/1 4/2/2 8/3/3
f 9/4/4 8/3/3 26/5/5
f 29/6/6 31/7/7 9/4/4
f 31/7/7 30/8/8 7/1/1
f 18/9/9 19/10/10 13/11/11
f 20/12/12 21/13/13 10/14/14
f 18/9/9 17/15/15 27/16/16
f 20/12/12 15/17/17 11/18/18
f 42/19/19 23/20/20 11/21/18
f 25/22/21 22/23/22 12/24/23
f 24/25/24 16/26/25 13/27/11
f 34/28/26 25/22/21 14/29/27
f 5/30/28 25/31/21 34/32/26
f 7/1/1 24/33/24 19/34/10
f 3/35/29 22/36/22 25/37/21
f 2/38/30 23/39/20 42/40/19
f 2/38/30 6/41/31 20/42/12
f 26/5/5 8/3/3 18/43/9
f 1/44/32 21/45/13 20/42/12
f 4/2/2 19/34/10 18/43/9
f 3/35/29 26/5/5 28/46/33
f 28/47/33 27/16/16 12/48/23
f 5/49/28 9/4/4 26/5/5
f 30/8/8 35/50/34 24/33/24
f 29/6/6 34/51/26 38/52/35
f 34/28/26 32/53/36 37/54/37
f 35/55/34 33/56/38 16/26/25
f 39/57/39 30/8/8 31/7/7
f 40/58/40 31/7/7 29/6/6
f 1/44/32 6/41/31 40/58/40
f 2/38/30 39/57/39 40/58/40
f 38/59/35 37/54/37 10/60/14
f 1/44/32 36/61/41 38/52/35
f 30/8/8 39/57/39 42/40/19
f 35/55/34 42/19/19 41/62/42
f 9/4/4 7/1/1 8/3/3
f 5/49/28 29/6/6 9/4/4
f 9/4/4 31/7/7 7/1/1
f 17/15/15 18/9/9 13/11/11
f 15/17/17 20/12/12 10/14/14
f 28/47/33 18/9/9 27/16/16
f 23/63/20 20/12/12 11/18/18
f 41/62/42 42/19/19 11/21/18
f 14/29/27 25/22/21 12/24/23
f 19/64/10 24/25/24 13/27/11
f 32/53/36 34/28/26 14/29/27
f 29/65/6 5/30/28 34/32/26
f 4/2/2 7/1/1 19/34/10
f 5/49/28 3/35/29 25/37/21
f 39/57/39 2/38/30 42/40/19
f 23/39/20 2/38/30 20/42/12
f 28/46/33 26/5/5 18/43/9
f 6/41/31 1/44/32 20/42/12
f 8/3/3 4/2/2 18/43/9
f 22/36/22 3/35/29 28/46/33
f 22/66/22 28/47/33 12/48/23
f 3/35/29 5/49/28 26/5/5
f 7/1/1 30/8/8 24/33/24
f 36/61/41 29/6/6 38/52/35
f 38/59/35 34/28/26 37/54/37
f 24/25/24 35/55/34 16/26/25
f 40/58/40 39/57/39 31/7/7
f 36/61/41 40/58/40 29/6/6
f 36/61/41 1/44/32 40/58/40
f 6/41/31 2/38/30 40/58/40
f 21/67/13 38/59/35 10/60/14
f 21/45/13 1/44/32 38/52/35
f 35/50/34 30/8/8 42/40/19
f 33/56/38 35/55/34 41/62/42
