# Blender v2.76 (sub 0) OBJ File: 'SceneryTri.blend'
# www.blender.org
mtllib 7.mtl
o 7_Plane.005
v 195.797119 88.075684 306.335815
v 195.796875 134.986023 -324.310425
v -196.026123 88.075684 306.335938
v -196.026123 134.986023 -248.889633
v -0.114502 88.075684 332.003418
v 233.884033 134.986023 -98.176376
v 87.380127 134.986023 -324.310303
v -227.990967 134.986023 -8.987061
v -0.114502 134.986023 -8.987061
v 195.797119 20.417782 306.335815
v 195.796875 20.417782 -324.310425
v -196.026123 20.417782 306.335938
v -196.026123 20.417782 -248.889633
v -0.114502 20.417782 332.003418
v 233.884033 20.417782 -98.176376
v 87.380127 20.417782 -324.310303
v -227.990967 20.417782 -8.987061
v -227.990967 111.530853 148.674561
v 232.661865 95.802490 147.099487
v 0.719238 115.528198 147.512085
v -227.990967 20.417782 148.674561
v 233.884277 20.417782 148.674438
v -98.070312 134.986023 -282.583984
v -98.070312 20.417782 -282.583984
v -234.533936 111.729599 -9.289551
v -201.651855 111.729599 -256.078369
v 240.598877 111.729599 -98.478622
v 201.418457 73.445816 315.084595
v -201.651855 73.445816 315.084717
v 201.418213 111.729599 -333.663940
v 89.889404 111.729599 -333.663818
v -0.116699 73.445816 340.751831
v -234.533936 92.587708 152.897705
v 239.601318 79.751709 151.612183
v -100.884277 111.729599 -290.739746
vt 0.177584 0.823109
vt 0.331240 0.801232
vt 0.298602 0.891035
vt 0.101373 0.811279
vt 0.162025 0.931121
vt 0.116218 0.696512
vt 0.238215 0.719257
vt 0.332233 0.751945
vt 0.852236 0.110752
vt 0.781868 0.107667
vt 0.784806 0.081873
vt 0.827532 0.289905
vt 0.796669 0.319623
vt 0.788118 0.308814
vt 0.898280 0.106929
vt 0.853211 0.084871
vt 0.876728 0.248495
vt 0.859494 0.232738
vt 0.898574 0.189224
vt 0.879647 0.171404
vt 0.902507 0.174438
vt 0.898858 0.193099
vt 0.122984 0.400457
vt 0.068847 0.373892
vt 0.077081 0.360127
vt 0.839459 0.166957
vt 0.876636 0.190150
vt 0.129717 0.385994
vt 0.183399 0.409613
vt 0.897788 0.086399
vt 0.943295 0.087089
vt 0.816854 0.279057
vt 0.039644 0.710236
vt 0.084061 0.921769
vt 0.013127 0.891870
vt 0.009544 0.798259
vt 0.837570 0.185827
vt 0.816257 0.183691
vt 0.272027 0.932659
vt 0.310586 0.897633
vt 0.113497 0.687520
vt 0.240492 0.706992
vt 0.078395 0.930582
vt 0.000659 0.796949
vt 0.344905 0.801483
vt 0.004963 0.896071
vt 0.343309 0.744805
vt 0.160299 0.943592
vt 0.033104 0.703815
vt 0.278740 0.943592
vt 0.917365 0.203259
vt 0.178167 0.424775
vt 0.945178 0.102260
vt 0.817535 0.164759
vn 0.022200 0.997000 0.074200
vn -0.071300 0.806300 -0.587100
vn -0.159000 0.811400 -0.562400
vn 0.027100 0.991200 0.129200
vn -0.608300 0.793500 0.015000
vn 0.594900 0.792200 0.135600
vn 0.616000 0.787700 0.000900
vn 0.450900 0.743900 -0.493200
vn -0.992500 0.108200 -0.056800
vn -0.758600 0.125300 -0.639400
vn -0.775000 -0.096900 -0.624500
vn 0.977400 0.159700 0.138300
vn 0.644700 0.182000 0.742400
vn 0.668900 -0.183800 0.720300
vn -0.983000 0.132200 0.127600
vn -0.994800 -0.074000 -0.069100
vn 0.991300 0.111300 -0.070300
vn 0.993500 -0.075000 -0.085500
vn 0.648200 -0.116300 -0.752500
vn -0.103500 0.133700 -0.985600
vn 0.629000 0.142900 -0.764100
vn 0.000000 0.181600 0.983400
vn -0.652700 0.175200 0.737100
vn -0.684200 -0.182100 0.706200
vn -0.270900 0.129000 -0.953900
vn -0.112600 -0.098200 -0.988800
vn 0.000000 -0.162800 0.986600
vn -0.990800 -0.095400 0.096300
vn 0.988200 -0.100900 0.114800
vn 0.422400 0.789300 0.445500
vn -0.594200 0.788000 0.161100
vn -0.417700 0.780000 0.466000
vn 0.000000 0.814800 0.579700
vn -0.271400 -0.093900 -0.957900
vn -0.535600 0.738200 -0.410000
usemtl Material
s 1
f 9/1/1 7/2/2 23/3/3
f 20/4/4 9/1/1 8/5/5
f 19/6/6 6/7/7 9/1/1
f 6/7/7 2/8/8 7/2/2
f 25/9/9 26/10/10 13/11/11
f 34/12/12 28/13/13 10/14/14
f 33/15/15 25/9/9 17/16/16
f 27/17/17 15/18/18 11/19/19
f 31/20/20 30/21/21 11/22/19
f 32/23/22 29/24/23 12/25/24
f 35/26/25 31/20/20 16/27/26
f 32/23/22 14/28/27 10/29/14
f 33/15/15 21/30/28 12/31/24
f 34/12/12 22/32/29 15/18/18
f 1/33/30 19/6/6 20/4/4
f 20/4/4 18/34/31 3/35/32
f 5/36/33 1/33/30 20/4/4
f 20/4/4 19/6/6 9/1/1
f 35/26/25 24/37/34 13/38/11
f 9/1/1 23/3/3 4/39/35
f 4/39/35 23/3/3 35/40/25
f 19/6/6 34/41/12 27/42/17
f 3/35/32 18/34/31 33/43/15
f 1/33/30 5/36/33 32/44/22
f 7/2/2 31/45/20 35/40/25
f 3/35/32 29/46/23 32/44/22
f 2/8/8 30/47/21 31/45/20
f 2/8/8 6/7/7 27/42/17
f 18/34/31 8/5/5 25/48/9
f 1/33/30 28/49/13 34/41/12
f 4/39/35 26/50/10 25/48/9
f 18/34/31 20/4/4 8/5/5
f 9/1/1 6/7/7 7/2/2
f 17/16/16 25/9/9 13/11/11
f 22/32/29 34/12/12 10/14/14
f 21/30/28 33/15/15 17/16/16
f 30/51/21 27/17/17 11/19/19
f 16/27/26 31/20/20 11/22/19
f 14/28/27 32/23/22 12/25/24
f 24/37/34 35/26/25 16/27/26
f 28/52/13 32/23/22 10/29/14
f 29/53/23 33/15/15 12/31/24
f 27/17/17 34/12/12 15/18/18
f 5/36/33 20/4/4 3/35/32
f 26/54/10 35/26/25 13/38/11
f 8/5/5 9/1/1 4/39/35
f 26/50/10 4/39/35 35/40/25
f 6/7/7 19/6/6 27/42/17
f 29/46/23 3/35/32 33/43/15
f 28/49/13 1/33/30 32/44/22
f 23/3/3 7/2/2 35/40/25
f 5/36/33 3/35/32 32/44/22
f 7/2/2 2/8/8 31/45/20
f 30/47/21 2/8/8 27/42/17
f 33/43/15 18/34/31 25/48/9
f 19/6/6 1/33/30 34/41/12
f 8/5/5 4/39/35 25/48/9
