# Blender v2.76 (sub 0) OBJ File: 'SceneryTri.blend'
# www.blender.org
mtllib 8.mtl
o 8_Plane.006
v 279.893555 84.302719 301.762634
v 279.893555 84.302719 -291.819397
v -252.048340 84.302719 348.002380
v -252.048584 84.302719 -366.279846
v 83.981934 84.302719 348.002380
v 279.893555 84.302719 54.873444
v 83.981934 84.302719 -328.623108
v -294.646484 84.302719 175.966736
v 83.981934 38.030678 93.286072
v 279.893555 0.732582 301.762634
v 279.893555 0.732582 -291.819397
v -252.048340 0.732582 348.002380
v -252.048584 0.732582 -366.279846
v 83.981934 0.732582 348.002380
v 279.893555 0.732582 54.873444
v 83.981934 0.732582 -328.623108
v -294.646484 0.732582 175.966736
v -126.548096 84.302719 -341.121643
v -137.874512 84.302719 369.217224
v -84.033203 38.030678 175.966736
v -126.548096 0.732582 -341.121643
v -137.874512 0.732582 369.217224
v 307.590576 84.302719 -134.899521
v -252.048340 84.302719 -134.899460
v 83.981934 38.030678 -134.899460
v 307.590576 0.732582 -134.899521
v -252.048340 0.732582 -134.899460
v -84.033203 38.030678 -134.899460
v -300.440186 63.410187 177.614197
v -257.842285 63.410187 -373.969788
v 285.893555 63.410187 56.520905
v 285.893555 63.410187 309.909119
v -257.842285 63.410187 356.148865
v 285.893555 63.410187 -299.509338
v 85.638428 63.410187 -336.313049
v 85.638428 63.410187 356.148865
v -128.616699 63.410187 -348.811584
v -139.943359 63.410187 377.363708
v 313.590576 63.410187 -137.460068
v -257.842285 63.410187 -137.460007
vt 0.723785 0.286825
vt 0.705494 0.340349
vt 0.604864 0.318860
vt 0.487087 0.184966
vt 0.451254 0.280551
vt 0.388539 0.233064
vt 0.486620 0.011022
vt 0.596475 0.028677
vt 0.549714 0.120941
vt 0.748853 0.090685
vt 0.749162 0.180947
vt 0.654081 0.154366
vt 0.327754 0.705261
vt 0.264974 0.712196
vt 0.265169 0.695262
vt 0.492405 0.333309
vt 0.423349 0.316959
vt 0.429632 0.300325
vt 0.412262 0.697012
vt 0.409989 0.680350
vt 0.456907 0.674106
vt 0.496917 0.316255
vt 0.549005 0.329362
vt 0.349465 0.386728
vt 0.314235 0.427788
vt 0.302256 0.415931
vt 0.865419 0.315383
vt 0.840664 0.314533
vt 0.841994 0.301477
vt 0.336768 0.375749
vt 0.372610 0.332670
vt 0.912269 0.315341
vt 0.912074 0.302269
vt 0.953688 0.301477
vt 0.385933 0.342885
vt 0.394782 0.306880
vt 0.865991 0.302320
vt 0.431130 0.081071
vt 0.629966 0.233701
vt 0.545628 0.346684
vt 0.592595 0.338925
vt 0.326588 0.688478
vt 0.689919 0.051139
vt 0.603426 0.330615
vt 0.695648 0.041395
vt 0.389734 0.181684
vt 0.378298 0.180341
vt 0.421142 0.074958
vt 0.734797 0.291916
vt 0.760765 0.181854
vt 0.378298 0.237529
vt 0.759006 0.085757
vt 0.598083 0.017347
vt 0.445735 0.290320
vt 0.481767 0.000659
vt 0.711463 0.351028
vt 0.460858 0.690590
vt 0.954758 0.314561
vt 0.408723 0.316344
vt 0.590595 0.356578
vn 0.108900 0.860000 -0.498500
vn -0.444200 0.725700 -0.525300
vn -0.490800 0.871200 -0.006300
vn 0.067800 0.993100 -0.095500
vn -0.569500 0.821600 0.026200
vn -0.422300 0.803200 0.420200
vn 0.515100 0.781100 0.352800
vn 0.480600 0.875900 0.041800
vn -0.108600 0.992600 -0.053500
vn 0.442700 0.794700 -0.415200
vn 0.061700 0.871300 -0.486800
vn -0.083000 0.992200 0.092200
vn -0.993700 0.091900 -0.064800
vn -0.627500 0.123000 -0.768800
vn -0.630500 -0.154100 -0.760700
vn 0.993100 0.094200 0.070100
vn 0.760600 0.128300 0.636400
vn 0.784900 -0.151400 0.600800
vn -0.994400 0.088500 0.057900
vn -0.994300 -0.093800 0.051200
vn -0.685000 -0.151000 0.712700
vn 0.992600 -0.096900 0.072900
vn 0.995200 -0.096700 -0.012100
vn 0.121800 0.115800 -0.985700
vn 0.698000 0.127400 -0.704700
vn 0.708800 -0.149000 -0.689400
vn -0.048200 0.119700 0.991600
vn -0.672700 0.130100 0.728400
vn 0.120800 -0.124000 -0.984900
vn 0.124800 -0.117100 -0.985200
vn 0.161600 0.121700 0.979300
vn 0.161200 -0.131400 0.978100
vn 0.130400 0.111400 -0.985200
vn -0.042000 -0.130600 0.990500
vn 0.070800 0.868400 0.490700
vn 0.122300 0.987500 0.099600
vn 0.995500 0.091400 -0.023100
vn -0.993100 -0.094600 -0.069200
vn 0.563700 0.825900 -0.001400
vn -0.015800 0.862100 0.506500
usemtl Material
s 1
f 18/1/1 4/2/2 24/3/3
f 20/4/4 8/5/5 3/6/6
f 1/7/7 6/8/8 9/9/9
f 2/10/10 7/11/11 25/12/12
f 40/13/13 30/14/14 13/15/15
f 31/16/16 32/17/17 10/18/18
f 29/19/19 17/20/20 12/21/21
f 31/16/16 15/22/22 26/23/23
f 35/24/24 34/25/25 11/26/26
f 38/27/27 33/28/28 12/29/21
f 35/24/24 16/30/29 21/31/30
f 36/32/31 14/33/32 10/34/18
f 37/35/33 21/31/30 13/36/15
f 36/32/31 38/27/27 22/37/34
f 5/38/35 9/9/9 20/4/4
f 7/11/11 18/1/1 28/39/36
f 9/9/9 25/12/12 28/39/36
f 39/40/37 26/23/23 11/41/26
f 40/13/13 27/42/38 17/20/20
f 6/8/8 23/43/39 25/12/12
f 20/4/4 28/39/36 24/3/3
f 8/5/5 24/3/3 40/44/13
f 2/10/10 23/43/39 39/45/37
f 19/46/40 38/47/27 36/48/31
f 4/2/2 18/1/1 37/49/33
f 1/7/7 5/38/35 36/48/31
f 18/1/1 7/11/11 35/50/24
f 3/6/6 33/51/28 38/47/27
f 2/10/10 34/52/25 35/50/24
f 23/43/39 6/8/8 31/53/16
f 3/6/6 8/5/5 29/54/19
f 1/7/7 32/55/17 31/53/16
f 4/2/2 30/56/14 40/44/13
f 28/39/36 18/1/1 24/3/3
f 19/46/40 20/4/4 3/6/6
f 5/38/35 1/7/7 9/9/9
f 23/43/39 2/10/10 25/12/12
f 27/42/38 40/13/13 13/15/15
f 15/22/22 31/16/16 10/18/18
f 33/57/28 29/19/19 12/21/21
f 39/40/37 31/16/16 26/23/23
f 16/30/29 35/24/24 11/26/26
f 22/37/34 38/27/27 12/29/21
f 37/35/33 35/24/24 21/31/30
f 32/58/17 36/32/31 10/34/18
f 30/59/14 37/35/33 13/36/15
f 14/33/32 36/32/31 22/37/34
f 19/46/40 5/38/35 20/4/4
f 25/12/12 7/11/11 28/39/36
f 20/4/4 9/9/9 28/39/36
f 34/60/25 39/40/37 11/41/26
f 29/19/19 40/13/13 17/20/20
f 9/9/9 6/8/8 25/12/12
f 8/5/5 20/4/4 24/3/3
f 29/54/19 8/5/5 40/44/13
f 34/52/25 2/10/10 39/45/37
f 5/38/35 19/46/40 36/48/31
f 30/56/14 4/2/2 37/49/33
f 32/55/17 1/7/7 36/48/31
f 37/49/33 18/1/1 35/50/24
f 19/46/40 3/6/6 38/47/27
f 7/11/11 2/10/10 35/50/24
f 39/45/37 23/43/39 31/53/16
f 33/51/28 3/6/6 29/54/19
f 6/8/8 1/7/7 31/53/16
f 24/3/3 4/2/2 40/44/13
