# Blender v2.76 (sub 0) OBJ File: 'fountainofdeath.blend'
# www.blender.org
mtllib fountain.mtl
o Cube_Cube.004
v 1.003212 0.704459 2.588668
v 0.869237 0.704459 3.088668
v 0.503212 0.704459 3.454693
v 0.510977 1.295541 3.334831
v 0.864303 1.295541 2.981504
v 0.993630 1.295541 2.498851
v 1.003212 0.704459 -2.588668
v 0.869237 0.704459 -3.088668
v 0.503211 0.704459 -3.454693
v 0.510976 1.295541 -3.334840
v 0.864302 1.295541 -2.981514
v 0.993629 1.295541 -2.498861
v 2.588668 0.704459 -1.000319
v 3.088668 0.704459 -0.866344
v 3.454693 0.704459 -0.500319
v 3.588668 0.704459 -0.000318
v 3.454693 0.704459 0.499682
v 3.088668 0.704459 0.865707
v 2.588668 0.704459 0.999682
v 2.524079 1.295541 0.964994
v 3.006732 1.295541 0.835667
v 3.360059 1.295541 0.482341
v 3.489385 1.295541 -0.000312
v 3.360059 1.295541 -0.482965
v 3.006732 1.295541 -0.836292
v 2.524079 1.295541 -0.965618
v 2.588668 0.145995 -0.000319
v 2.588668 0.704459 -2.588668
v 2.588668 0.704459 2.588668
v 2.524079 1.295541 -2.498861
v 2.524079 1.295541 2.498851
v 0.849191 1.295540 2.362952
v 0.750713 1.295540 2.867843
v 0.460631 1.295540 3.207703
v 0.849191 1.295540 -2.363021
v 0.750712 1.295540 -2.867913
v 0.460631 1.295540 -3.207773
v 2.303277 1.295540 0.836234
v 2.765389 1.295540 0.790200
v 3.136309 1.295540 0.456084
v 3.240691 1.295540 -0.000325
v 2.303277 1.295540 -0.836885
v 2.765389 1.295540 -0.790850
v 3.136309 1.295540 -0.456735
v 2.303277 1.295540 -2.363021
v 2.303277 1.295540 2.362952
v 0.849191 0.839651 2.362952
v 0.750713 0.839651 2.867843
v 0.460631 0.839651 3.207703
v 0.849191 0.839651 -2.363021
v 0.750712 0.839651 -2.867913
v 0.460631 0.839651 -3.207773
v 2.303277 0.839651 0.836234
v 2.765389 0.839651 0.790200
v 3.136309 0.839651 0.456084
v 3.240691 0.839651 -0.000325
v 2.303277 0.839651 -0.836885
v 2.765389 0.839651 -0.790850
v 3.136309 0.839651 -0.456735
v 2.303277 0.281187 -0.000035
v 2.303277 0.839651 -2.363021
v 2.303277 0.839651 2.362952
v 0.849191 -0.050942 -0.000035
v 0.849191 -0.050942 0.836234
v 0.849191 -0.050942 -0.836885
v 1.679168 -0.753365 0.000024
v 1.679168 -0.753365 2.347150
v 1.679168 -0.753365 -2.348018
v 0.869237 1.233684 3.088668
v 1.003212 1.233684 2.588668
v 0.503212 1.233684 3.454693
v 0.869237 1.233684 -3.088668
v 1.003212 1.233684 -2.588668
v 0.503211 1.233684 -3.454693
v 3.088668 1.233684 -0.866344
v 3.454693 1.233684 0.499682
v 3.588668 1.233684 -0.000318
v 2.588668 1.233684 -1.000319
v 3.088668 1.233684 0.865707
v 2.588668 1.233684 0.999682
v 3.454693 1.233684 -0.500319
v 2.588668 1.233684 -2.588668
v 2.588668 1.233684 2.588668
v -1.003212 0.704459 2.588668
v -0.869237 0.704459 3.088668
v -0.503212 0.704459 3.454693
v 0.000000 0.704459 3.588668
v 0.000000 1.295541 3.464158
v -0.510977 1.295541 3.334831
v -0.864303 1.295541 2.981504
v -0.993630 1.295541 2.498851
v -1.003212 0.704459 -2.588668
v -0.869237 0.704459 -3.088668
v -0.503211 0.704459 -3.454693
v 0.000000 0.704459 -3.588668
v 0.000000 1.295541 -3.464166
v -0.510976 1.295541 -3.334840
v -0.864302 1.295541 -2.981514
v -0.993629 1.295541 -2.498861
v -2.588668 0.704459 -1.000319
v -3.088668 0.704459 -0.866344
v -3.454693 0.704459 -0.500319
v -3.588668 0.704459 -0.000318
v -3.454693 0.704459 0.499682
v -3.088668 0.704459 0.865707
v -2.588668 0.704459 0.999682
v -2.524079 1.295541 0.964994
v -3.006732 1.295541 0.835667
v -3.360059 1.295541 0.482341
v -3.489385 1.295541 -0.000312
v -3.360059 1.295541 -0.482965
v -3.006732 1.295541 -0.836292
v -2.524079 1.295541 -0.965618
v 0.000000 0.145995 2.588668
v -2.588668 0.145995 -0.000319
v 0.000000 0.145995 -2.588668
v -2.588668 0.704459 -2.588668
v -2.588668 0.704459 2.588668
v -2.524079 1.295541 -2.498861
v -2.524079 1.295541 2.498851
v 0.000000 -0.753365 0.000314
v -0.849191 1.295540 2.362952
v -0.750713 1.295540 2.867843
v -0.460631 1.295540 3.207703
v 0.000000 1.295540 3.332101
v -0.849191 1.295540 -2.363021
v -0.750712 1.295540 -2.867913
v -0.460631 1.295540 -3.207773
v 0.000000 1.295540 -3.332171
v -2.303277 1.295540 0.836234
v -2.765389 1.295540 0.790200
v -3.136309 1.295540 0.456084
v -3.240691 1.295540 -0.000325
v -2.303277 1.295540 -0.836885
v -2.765389 1.295540 -0.790850
v -3.136309 1.295540 -0.456735
v -2.303277 1.295540 -2.363021
v -2.303277 1.295540 2.362952
v -0.849191 0.839651 2.362952
v -0.750713 0.839651 2.867843
v -0.460631 0.839651 3.207703
v 0.000000 0.839651 3.332101
v -0.849191 0.839651 -2.363021
v -0.750712 0.839651 -2.867913
v -0.460631 0.839651 -3.207773
v 0.000000 0.839651 -3.332171
v -2.303277 0.839651 0.836234
v -2.765389 0.839651 0.790200
v -3.136309 0.839651 0.456084
v -3.240691 0.839651 -0.000325
v -2.303277 0.839651 -0.836885
v -2.765389 0.839651 -0.790850
v -3.136309 0.839651 -0.456735
v -2.303277 0.281187 -0.000035
v 0.000000 0.281187 -2.363021
v 0.000000 -0.050942 -0.000035
v 0.000000 0.281187 2.362952
v -2.303277 0.839651 -2.363021
v -2.303277 0.839651 2.362952
v 0.000000 -0.050942 -0.836885
v 0.000000 -0.050942 0.836234
v -0.849191 -0.050942 -0.000035
v -0.849191 -0.050942 0.836234
v -0.849191 -0.050942 -0.836885
v -1.679168 -0.753365 0.000024
v 0.000000 -0.753365 -2.348018
v 0.000000 -0.753365 2.347150
v -1.679168 -0.753365 2.347150
v -1.679168 -0.753365 -2.348018
v -0.869237 1.233684 3.088668
v 0.000000 1.233684 3.588668
v -1.003212 1.233684 2.588668
v -0.503212 1.233684 3.454693
v -0.869237 1.233684 -3.088668
v 0.000000 1.233684 -3.588668
v -1.003212 1.233684 -2.588668
v -0.503211 1.233684 -3.454693
v -3.088668 1.233684 -0.866344
v -3.454693 1.233684 0.499682
v -3.588668 1.233684 -0.000318
v -2.588668 1.233684 -1.000319
v -3.088668 1.233684 0.865707
v -2.588668 1.233684 0.999682
v -3.454693 1.233684 -0.500319
v -2.588668 1.233684 -2.588668
v -2.588668 1.233684 2.588668
vt 0.524212 0.190474
vt 0.572087 0.165659
vt 0.581456 0.175827
vt 0.533604 0.201386
vt 0.624679 0.165660
vt 0.631410 0.176047
vt 0.672143 0.186170
vt 0.677204 0.196284
vt 0.834903 0.194047
vt 0.825128 0.204616
vt 0.778219 0.177364
vt 0.787945 0.167538
vt 0.735386 0.165659
vt 0.728289 0.175799
vt 0.687220 0.184461
vt 0.681801 0.194387
vt 0.624889 0.784531
vt 0.674381 0.796757
vt 0.672136 0.807821
vt 0.624888 0.796023
vt 0.517418 0.877372
vt 0.537232 0.830174
vt 0.541553 0.839766
vt 0.522461 0.886591
vt 0.712545 0.830174
vt 0.708223 0.839767
vt 0.732358 0.877374
vt 0.727314 0.886593
vt 0.575396 0.796757
vt 0.577640 0.807821
vt 0.068479 0.828592
vt 0.021828 0.805676
vt 0.109321 0.721759
vt 0.167822 0.828791
vt 0.115731 0.835323
vt 0.637677 0.086246
vt 0.605898 0.051246
vt 0.711783 0.000376
vt 0.582572 0.000376
vt 0.676617 0.107136
vt 0.719861 0.114035
vt 0.764700 0.103817
vt 0.811855 0.077714
vt 0.240728 0.826866
vt 0.193699 0.803531
vt 0.284206 0.721759
vt 0.287558 0.836083
vt 0.339155 0.829822
vt 0.731413 0.592114
vt 0.613468 0.481398
vt 0.650425 0.442028
vt 0.768370 0.552744
vt 0.538949 0.228323
vt 0.695106 0.228323
vt 0.672577 0.242189
vt 0.524212 0.242189
vt 0.612716 0.492214
vt 0.503129 0.611698
vt 0.463334 0.575199
vt 0.572921 0.455715
vt 0.350034 0.414449
vt 0.230597 0.523990
vt 0.194099 0.484195
vt 0.313536 0.374654
vt 0.350786 0.612449
vt 0.590240 0.612449
vt 0.590270 0.783779
vt 0.350786 0.783779
vt 0.228403 0.554940
vt 0.313202 0.692701
vt 0.267217 0.721007
vt 0.182418 0.583246
vt 0.715191 0.910199
vt 0.706463 0.863250
vt 0.815473 0.214474
vt 0.772462 0.190182
vt 0.360463 0.891081
vt 0.534587 0.910198
vt 0.374522 0.912701
vt 0.726770 0.191706
vt 0.679521 0.214474
vt 0.889245 0.891080
vt 0.875192 0.912700
vt 0.586756 0.188847
vt 0.542904 0.211587
vt 0.624889 0.820760
vt 0.579170 0.830017
vt 0.632364 0.192001
vt 0.543316 0.863250
vt 0.678769 0.216444
vt 0.670609 0.830016
vt 0.853336 0.536047
vt 0.898926 0.536047
vt 0.898926 0.582563
vt 0.853336 0.582563
vt 0.751360 0.913452
vt 0.798743 0.913452
vt 0.798743 0.959968
vt 0.751360 0.959968
vt 0.954459 0.913452
vt 0.954459 0.959968
vt 0.951413 0.536047
vt 0.951413 0.582563
vt 0.604881 0.913452
vt 0.652652 0.913452
vt 0.652652 0.959968
vt 0.604881 0.959968
vt 0.506561 0.913452
vt 0.553945 0.913452
vt 0.553945 0.959968
vt 0.506561 0.959968
vt 0.197190 0.890357
vt 0.345555 0.890357
vt 0.345555 0.936873
vt 0.197190 0.936873
vt 0.830598 0.661132
vt 0.830598 0.612449
vt 0.877114 0.612449
vt 0.877114 0.661133
vt 0.350786 0.913452
vt 0.350786 0.959968
vt 0.830598 0.706723
vt 0.877114 0.706723
vt 0.953017 0.535295
vt 0.804653 0.535295
vt 0.804653 0.488780
vt 0.953017 0.488780
vt 0.830598 0.759210
vt 0.877114 0.759210
vt 0.700423 0.913452
vt 0.700423 0.959968
vt 0.873340 0.231057
vt 0.717185 0.231056
vt 0.702447 0.217196
vt 0.850811 0.217197
vt 0.345882 0.174775
vt 0.364038 0.002900
vt 0.521056 0.000376
vt 0.523460 0.149980
vt 0.178008 0.174773
vt 0.261916 0.175280
vt 0.261916 0.261291
vt 0.176357 0.260722
vt 0.023393 0.915928
vt 0.067446 0.890357
vt 0.093864 0.999624
vt 0.000376 0.957346
vt 0.115217 0.890357
vt 0.159483 0.908318
vt 0.190688 0.948576
vt 0.196439 0.995610
vt 0.804653 0.262043
vt 0.852077 0.273040
vt 0.804653 0.376171
vt 0.885594 0.303946
vt 0.905610 0.352465
vt 0.804653 0.488028
vt 0.813048 0.436218
vt 0.908356 0.488028
vt 0.838612 0.398469
vt 0.882268 0.376922
vt 0.804653 0.536047
vt 0.804653 0.582563
vt 0.000376 0.149981
vt 0.015877 0.254167
vt 0.261919 0.023180
vt 0.347533 0.260722
vt 0.159853 0.002895
vt 0.507955 0.254167
vt 0.002775 0.000376
vt 0.000376 0.575103
vt 0.080920 0.524742
vt 0.090186 0.721007
vt 0.350786 0.438535
vt 0.512659 0.262043
vt 0.612716 0.345834
vt 0.613468 0.330858
vt 0.678985 0.262043
vt 0.803901 0.379303
vt 0.829847 0.612449
vt 0.829847 0.783779
vt 0.000376 0.423977
vt 0.176939 0.262043
vt 0.084217 0.523991
vt 0.879930 0.242183
vt 0.718162 0.242183
vt 0.898921 0.881962
vt 0.350786 0.881962
vt 0.539927 0.217196
vt 0.701696 0.217196
vt 0.662230 0.157934
vt 0.606845 0.132371
vt 0.560160 0.089336
vt 0.837025 0.136086
vt 0.778689 0.157823
vt 0.720117 0.164908
vt 0.524212 0.034005
vt 0.227409 0.879712
vt 0.171188 0.860087
vt 0.283697 0.888377
vt 0.341437 0.888377
vt 0.170437 0.889606
vt 0.110890 0.889606
vt 0.054891 0.879237
vt 0.000376 0.860208
vn 0.000000 0.487100 0.873300
vn 0.424600 0.466700 0.775800
vn 0.195500 0.943100 0.268800
vn 0.000000 0.963400 0.268100
vn 0.779300 0.382200 0.496500
vn 0.485600 0.854000 0.186800
vn 0.644200 0.446900 0.620600
vn 0.096900 0.981700 0.163700
vn 0.000000 0.487100 -0.873300
vn 0.000000 0.963400 -0.268100
vn 0.195500 0.943100 -0.268800
vn 0.424600 0.466700 -0.775800
vn 0.779300 0.382200 -0.496500
vn 0.485600 0.854000 -0.186800
vn 0.644200 0.446900 -0.620700
vn 0.096900 0.981700 -0.163800
vn 0.890900 0.454200 0.000000
vn 0.783300 0.440400 -0.438700
vn 0.287500 0.938900 -0.189300
vn 0.316200 0.948700 0.000000
vn 0.668000 0.491800 0.558400
vn 0.482700 0.391100 0.783600
vn 0.177400 0.897900 0.402800
vn 0.169300 0.978100 0.121100
vn 0.482700 0.391100 -0.783600
vn 0.177300 0.897900 -0.402800
vn 0.668000 0.491900 -0.558400
vn 0.169300 0.978100 -0.121100
vn 0.783300 0.440400 0.438700
vn 0.287500 0.938900 0.189300
vn 0.440000 -0.473000 0.763300
vn 0.000000 -0.473000 0.881000
vn 0.000000 -0.539100 0.842200
vn 0.405000 -0.297600 0.864500
vn 0.762900 -0.473300 0.440400
vn 0.763100 -0.472800 0.440600
vn 0.440600 -0.472800 0.763100
vn 0.659300 -0.751900 0.000000
vn 0.776800 -0.473500 0.415200
vn 0.881100 -0.472800 0.000000
vn 0.763100 -0.472800 -0.440600
vn 0.440600 -0.472800 -0.763100
vn 0.776800 -0.473500 -0.415200
vn 0.762900 -0.473300 -0.440400
vn 0.405000 -0.297300 -0.864600
vn 0.000000 -0.538700 -0.842500
vn 0.440000 -0.473000 -0.763300
vn 0.000000 -0.473000 -0.881000
vn 0.633000 0.425200 0.646800
vn 0.713200 -0.236600 0.659700
vn 0.302000 0.927300 0.221100
vn -0.301500 0.904500 -0.301500
vn -0.514200 0.588200 -0.624200
vn 0.633100 0.425200 -0.646800
vn 0.713300 -0.236500 -0.659700
vn 0.000000 -0.771500 0.636200
vn 0.000000 -1.000000 0.000000
vn 0.459400 -0.888200 0.000000
vn 0.375200 -0.741000 0.556900
vn -0.602400 0.582700 0.545400
vn -0.250800 0.784400 0.567200
vn 0.000000 0.770700 0.637100
vn -0.334500 0.780100 0.528700
vn -0.602400 0.582700 -0.545400
vn -0.575700 0.769000 0.277800
vn -0.514200 0.588200 0.624200
vn 0.302000 0.927300 -0.221100
vn -0.301500 0.904500 0.301500
vn -0.334500 0.780100 -0.528700
vn 0.000000 0.770700 -0.637100
vn -0.648900 0.760900 0.000000
vn -0.537700 0.781700 -0.315900
vn -0.575700 0.769000 -0.277800
vn -0.250800 0.784400 -0.567200
vn -0.537700 0.781700 0.315900
vn -0.800000 0.455000 -0.391200
vn -0.472200 0.461900 -0.750800
vn -0.481100 0.672400 0.562500
vn -0.364700 0.451400 0.814400
vn -0.633000 0.454800 0.626500
vn -0.550200 0.661200 -0.509900
vn -0.884700 0.466100 0.000000
vn -0.766400 0.459300 -0.449000
vn -0.364700 0.451300 -0.814400
vn -0.481100 0.672300 -0.562600
vn -0.633000 0.454800 -0.626400
vn 0.000000 0.467400 0.884000
vn -0.472200 0.461900 0.750800
vn -0.800000 0.455000 0.391200
vn -0.550200 0.661200 0.510000
vn -0.766400 0.459400 0.449000
vn -0.239200 0.942600 0.232800
vn -0.239200 0.942600 -0.232800
vn -0.193200 0.981100 -0.000000
vn 0.000000 1.000000 0.000000
vn 0.000000 0.982700 -0.185100
vn -0.366900 0.930200 -0.000100
vn 0.000000 0.467400 -0.884000
vn 0.000000 0.933900 -0.357500
vn 0.000000 0.933900 0.357500
vn 0.000000 0.982700 0.185100
vn 0.000000 -0.771300 -0.636400
vn 0.375200 -0.740800 -0.557100
vn -0.195500 0.943100 0.268800
vn -0.424600 0.466700 0.775800
vn -0.779300 0.382200 0.496500
vn -0.485600 0.854000 0.186800
vn -0.644200 0.446900 0.620600
vn -0.096900 0.981700 0.163700
vn -0.424600 0.466700 -0.775800
vn -0.195500 0.943100 -0.268800
vn -0.779300 0.382200 -0.496500
vn -0.485600 0.854000 -0.186800
vn -0.644200 0.446900 -0.620700
vn -0.096900 0.981700 -0.163800
vn -0.890900 0.454200 0.000000
vn -0.316200 0.948700 0.000000
vn -0.287500 0.938900 -0.189300
vn -0.783300 0.440400 -0.438700
vn -0.668000 0.491800 0.558400
vn -0.169300 0.978100 0.121100
vn -0.177400 0.897900 0.402800
vn -0.482700 0.391100 0.783600
vn -0.482700 0.391100 -0.783600
vn -0.177300 0.897900 -0.402800
vn -0.668000 0.491900 -0.558400
vn -0.169300 0.978100 -0.121100
vn -0.287500 0.938900 0.189300
vn -0.783300 0.440400 0.438700
vn -0.440000 -0.473000 0.763300
vn -0.405000 -0.297600 0.864500
vn -0.762900 -0.473300 0.440400
vn -0.763100 -0.472800 0.440600
vn -0.659300 -0.751900 0.000000
vn -0.440600 -0.472800 0.763100
vn -0.776800 -0.473500 0.415200
vn -0.881100 -0.472800 0.000000
vn -0.763100 -0.472800 -0.440600
vn -0.440600 -0.472800 -0.763100
vn -0.776800 -0.473500 -0.415200
vn -0.762900 -0.473300 -0.440400
vn -0.405000 -0.297300 -0.864600
vn -0.440000 -0.473000 -0.763300
vn -0.633000 0.425200 0.646800
vn -0.713200 -0.236600 0.659700
vn 0.514200 0.588200 -0.624200
vn 0.301500 0.904500 -0.301500
vn -0.302000 0.927300 0.221100
vn -0.633100 0.425200 -0.646800
vn -0.713300 -0.236500 -0.659700
vn -0.375200 -0.741000 0.556900
vn -0.459400 -0.888200 0.000000
vn 0.250800 0.784400 0.567200
vn 0.602400 0.582700 0.545400
vn 0.334500 0.780100 0.528700
vn 0.602400 0.582700 -0.545400
vn 0.575700 0.769000 0.277800
vn 0.514200 0.588200 0.624200
vn 0.301500 0.904500 0.301500
vn -0.302000 0.927300 -0.221100
vn 0.334500 0.780100 -0.528700
vn 0.537700 0.781700 -0.315900
vn 0.648900 0.760900 0.000000
vn 0.575700 0.769000 -0.277800
vn 0.250800 0.784400 -0.567200
vn 0.537700 0.781700 0.315900
vn 0.472200 0.461900 -0.750800
vn 0.800000 0.455000 -0.391200
vn 0.364700 0.451400 0.814400
vn 0.481100 0.672400 0.562500
vn 0.633000 0.454800 0.626500
vn 0.550200 0.661200 -0.509900
vn 0.766400 0.459300 -0.449000
vn 0.884700 0.466100 0.000000
vn 0.481100 0.672300 -0.562600
vn 0.364700 0.451300 -0.814400
vn 0.633000 0.454800 -0.626400
vn 0.472200 0.461900 0.750800
vn 0.800000 0.455000 0.391200
vn 0.550200 0.661200 0.510000
vn 0.766400 0.459400 0.449000
vn 0.239200 0.942600 0.232800
vn 0.239200 0.942600 -0.232800
vn 0.193200 0.981100 -0.000000
vn 0.366900 0.930200 -0.000100
vn -0.375200 -0.740800 -0.557100
usemtl Material
s 1
f 171/1/1 71/2/2 4/3/3 88/4/4
f 69/5/5 5/6/6 4/3/3 71/2/2
f 70/7/7 6/8/8 5/6/6 69/5/5
f 175/9/9 96/10/10 10/11/11 74/12/12
f 72/13/13 74/12/12 10/11/11 11/14/14
f 73/15/15 72/13/13 11/14/14 12/16/16
f 77/17/17 81/18/18 24/19/19 23/20/20
f 80/21/21 79/22/22 21/23/23 20/24/24
f 75/25/25 25/26/26 24/19/19 81/18/18
f 78/27/27 26/28/28 25/26/26 75/25/25
f 79/22/22 76/29/29 22/30/30 21/23/23
f 76/29/29 77/17/17 23/20/20 22/30/30
f 3/31/31 87/32/32 114/33/33
f 1/34/34 2/35/35 114/33/33
f 2/35/35 3/31/31 114/33/33
f 17/36/36 18/37/37 27/38/38
f 19/39/39 27/38/38 18/37/37
f 17/36/36 27/38/38 16/40/40
f 15/41/41 16/40/40 27/38/38
f 15/41/41 27/38/38 14/42/42
f 14/42/42 27/38/38 13/43/43
f 8/44/44 7/45/45 116/46/46
f 9/47/47 8/44/44 116/46/46
f 9/47/47 116/46/46 95/48/48
f 83/49/49 70/50/7 1/51/34 29/52/50
f 6/53/8 31/54/51 46/55/52 32/56/53
f 80/57/21 83/58/49 29/59/50 19/60/39
f 82/61/54 78/62/27 13/63/43 28/64/55
f 167/65/56 121/66/57 66/67/58 67/68/59
f 73/69/15 82/70/54 28/71/55 7/72/45
f 25/26/26 26/28/28 42/73/60 43/74/61
f 10/11/11 96/10/10 129/75/62 37/76/63
f 31/77/51 20/24/24 38/78/64 46/79/52
f 11/14/14 10/11/11 37/76/63 36/80/65
f 12/16/16 11/14/14 36/80/65 35/81/66
f 26/28/28 30/82/67 45/83/68 42/73/60
f 88/4/4 4/3/3 34/84/69 125/85/70
f 22/30/30 23/20/20 41/86/71 40/87/72
f 4/3/3 5/6/6 33/88/73 34/84/69
f 20/24/24 21/23/23 39/89/74 38/78/64
f 21/23/23 22/30/30 40/87/72 39/89/74
f 5/6/6 6/8/8 32/90/53 33/88/73
f 23/20/20 24/19/19 44/91/75 41/86/71
f 34/92/69 33/93/73 48/94/76 49/95/77
f 43/96/61 42/97/60 57/98/78 58/99/79
f 42/97/60 45/100/68 61/101/80 57/98/78
f 33/93/73 32/102/53 47/103/81 48/94/76
f 40/104/72 41/105/71 56/106/82 55/107/83
f 38/108/64 39/109/74 54/110/84 53/111/85
f 32/112/53 46/113/52 62/114/86 47/115/81
f 37/116/63 129/117/62 146/118/87 52/119/88
f 46/120/52 38/108/64 53/111/85 62/121/86
f 36/122/65 37/116/63 52/119/88 51/123/89
f 39/109/74 40/104/72 55/107/83 54/110/84
f 45/124/68 35/125/66 50/126/90 61/127/80
f 35/128/66 36/122/65 51/123/89 50/129/90
f 41/105/71 44/130/75 59/131/91 56/106/82
f 24/19/19 25/26/26 43/74/61 44/91/75
f 30/132/67 12/133/16 35/134/66 45/135/68
f 65/136/92 57/137/78 61/138/80 50/139/90
f 64/140/93 63/141/94 156/142/95 161/143/96
f 54/144/84 55/145/83 60/146/97
f 53/147/85 54/144/84 60/146/97
f 55/145/83 56/148/82 60/146/97
f 59/149/91 60/146/97 56/148/82
f 59/149/91 58/150/79 60/146/97
f 58/150/79 57/151/78 60/146/97
f 142/152/98 49/153/77 157/154/99
f 49/153/77 48/155/76 157/154/99
f 47/156/81 157/154/99 48/155/76
f 50/157/90 51/158/89 155/159/100
f 52/160/88 155/159/100 51/158/89
f 52/160/88 146/161/87 155/159/100
f 44/130/75 43/96/61 58/99/79 59/131/91
f 125/162/70 34/92/69 49/95/77 142/163/98
f 47/164/81 64/140/93 161/143/96 157/165/99
f 63/141/94 60/166/97 57/137/78 65/136/92
f 156/142/95 63/141/94 65/136/92 160/167/101
f 53/168/85 60/166/97 63/141/94 64/140/93
f 160/167/101 65/136/92 50/139/90 155/169/100
f 62/170/86 53/168/85 64/140/93 47/164/81
f 166/171/102 116/172/46 7/72/45 68/173/103
f 68/173/103 7/72/45 28/71/55
f 67/174/59 66/175/58 27/176/38 19/60/39
f 114/177/33 167/178/56 67/179/59 1/51/34
f 67/174/59 19/60/39 29/59/50
f 121/66/57 166/180/102 68/181/103 66/67/58
f 66/182/58 68/183/103 13/63/43 27/184/38
f 1/51/34 67/179/59 29/52/50
f 13/63/43 68/183/103 28/64/55
f 12/133/16 30/132/67 82/185/54 73/186/15
f 30/82/67 26/28/28 78/27/27 82/187/54
f 20/24/24 31/77/51 83/188/49 80/21/21
f 31/54/51 6/53/8 70/189/7 83/190/49
f 17/36/36 16/40/40 77/191/17 76/192/29
f 18/37/37 17/36/36 76/192/29 79/193/22
f 13/43/43 78/194/27 75/195/25 14/42/42
f 14/42/42 75/195/25 81/196/18 15/41/41
f 19/39/39 18/37/37 79/193/22 80/197/21
f 16/40/40 15/41/41 81/196/18 77/191/17
f 7/45/45 8/44/44 72/198/13 73/199/15
f 8/44/44 9/47/47 74/200/12 72/198/13
f 95/48/48 175/201/9 74/200/12 9/47/47
f 1/34/34 70/202/7 69/203/5 2/35/35
f 2/35/35 69/203/5 71/204/2 3/31/31
f 87/32/32 3/31/31 71/204/2 171/205/1
f 171/1/1 88/4/4 89/3/104 173/2/105
f 170/5/106 173/2/105 89/3/104 90/6/107
f 172/7/108 170/5/106 90/6/107 91/8/109
f 175/9/9 177/12/110 97/11/111 96/10/10
f 174/13/112 98/14/113 97/11/111 177/12/110
f 176/15/114 99/16/115 98/14/113 174/13/112
f 180/17/116 110/20/117 111/19/118 184/18/119
f 183/21/120 107/24/121 108/23/122 182/22/123
f 178/25/124 184/18/119 111/19/118 112/26/125
f 181/27/126 178/25/124 112/26/125 113/28/127
f 182/22/123 108/23/122 109/30/128 179/29/129
f 179/29/129 109/30/128 110/20/117 180/17/116
f 86/31/130 114/33/33 87/32/32
f 84/34/131 114/33/33 85/35/132
f 85/35/132 114/33/33 86/31/130
f 104/36/133 115/38/134 105/37/135
f 106/39/136 105/37/135 115/38/134
f 104/36/133 103/40/137 115/38/134
f 102/41/138 115/38/134 103/40/137
f 102/41/138 101/42/139 115/38/134
f 101/42/139 100/43/140 115/38/134
f 93/44/141 116/46/46 92/45/142
f 94/47/143 116/46/46 93/44/141
f 94/47/143 95/48/48 116/46/46
f 186/49/144 118/52/145 84/51/131 172/50/108
f 91/53/109 122/56/146 138/55/147 120/54/148
f 183/57/120 106/60/136 118/59/145 186/58/144
f 185/61/149 117/64/150 100/63/140 181/62/126
f 167/65/56 168/68/151 165/67/152 121/66/57
f 176/69/114 92/72/142 117/71/150 185/70/149
f 112/26/125 135/74/153 134/73/154 113/28/127
f 97/11/111 128/76/155 129/75/62 96/10/10
f 120/77/148 138/79/147 130/78/156 107/24/121
f 98/14/113 127/80/157 128/76/155 97/11/111
f 99/16/115 126/81/158 127/80/157 98/14/113
f 113/28/127 134/73/154 137/83/159 119/82/160
f 88/4/4 125/85/70 124/84/161 89/3/104
f 109/30/128 132/87/162 133/86/163 110/20/117
f 89/3/104 124/84/161 123/88/164 90/6/107
f 107/24/121 130/78/156 131/89/165 108/23/122
f 108/23/122 131/89/165 132/87/162 109/30/128
f 90/6/107 123/88/164 122/90/146 91/8/109
f 110/20/117 133/86/163 136/91/166 111/19/118
f 124/92/161 141/95/167 140/94/168 123/93/164
f 135/96/153 152/99/169 151/98/170 134/97/154
f 134/97/154 151/98/170 158/101/171 137/100/159
f 123/93/164 140/94/168 139/103/172 122/102/146
f 132/104/162 149/107/173 150/106/174 133/105/163
f 130/108/156 147/111/175 148/110/176 131/109/165
f 122/112/146 139/115/172 159/114/177 138/113/147
f 128/116/155 145/119/178 146/118/87 129/117/62
f 138/120/147 159/121/177 147/111/175 130/108/156
f 127/122/157 144/123/179 145/119/178 128/116/155
f 131/109/165 148/110/176 149/107/173 132/104/162
f 137/124/159 158/127/171 143/126/180 126/125/158
f 126/128/158 143/129/180 144/123/179 127/122/157
f 133/105/163 150/106/174 153/131/181 136/130/166
f 111/19/118 136/91/166 135/74/153 112/26/125
f 119/132/160 137/135/159 126/134/158 99/133/115
f 164/136/182 143/139/180 158/138/171 151/137/170
f 163/140/183 161/143/96 156/142/95 162/141/184
f 148/144/176 154/146/185 149/145/173
f 147/147/175 154/146/185 148/144/176
f 149/145/173 154/146/185 150/148/174
f 153/149/181 150/148/174 154/146/185
f 153/149/181 154/146/185 152/150/169
f 152/150/169 154/146/185 151/151/170
f 142/152/98 157/154/99 141/153/167
f 141/153/167 157/154/99 140/155/168
f 139/156/172 140/155/168 157/154/99
f 143/157/180 155/159/100 144/158/179
f 145/160/178 144/158/179 155/159/100
f 145/160/178 155/159/100 146/161/87
f 136/130/166 153/131/181 152/99/169 135/96/153
f 125/162/70 142/163/98 141/95/167 124/92/161
f 139/164/172 157/165/99 161/143/96 163/140/183
f 162/141/184 164/136/182 151/137/170 154/166/185
f 156/142/95 160/167/101 164/136/182 162/141/184
f 147/168/175 163/140/183 162/141/184 154/166/185
f 160/167/101 155/169/100 143/139/180 164/136/182
f 159/170/177 139/164/172 163/140/183 147/168/175
f 166/171/102 169/173/186 92/72/142 116/172/46
f 169/173/186 117/71/150 92/72/142
f 168/174/151 106/60/136 115/176/134 165/175/152
f 114/177/33 84/51/131 168/179/151 167/178/56
f 168/174/151 118/59/145 106/60/136
f 121/66/57 165/67/152 169/181/186 166/180/102
f 165/182/152 115/184/134 100/63/140 169/183/186
f 84/51/131 118/52/145 168/179/151
f 100/63/140 117/64/150 169/183/186
f 99/133/115 176/186/114 185/185/149 119/132/160
f 119/82/160 185/187/149 181/27/126 113/28/127
f 107/24/121 183/21/120 186/188/144 120/77/148
f 120/54/148 186/190/144 172/189/108 91/53/109
f 104/36/133 179/192/129 180/191/116 103/40/137
f 105/37/135 182/193/123 179/192/129 104/36/133
f 100/43/140 101/42/139 178/195/124 181/194/126
f 101/42/139 102/41/138 184/196/119 178/195/124
f 106/39/136 183/197/120 182/193/123 105/37/135
f 103/40/137 180/191/116 184/196/119 102/41/138
f 92/45/142 176/199/114 174/198/112 93/44/141
f 93/44/141 174/198/112 177/200/110 94/47/143
f 95/48/48 94/47/143 177/200/110 175/201/9
f 84/34/131 85/35/132 170/203/106 172/202/108
f 85/35/132 86/31/130 173/204/105 170/203/106
f 87/32/32 171/205/1 173/204/105 86/31/130
