# Blender v2.76 (sub 0) OBJ File: 'rocks.blend'
# www.blender.org
mtllib rocks.mtl
o Cube.003_Mesh.016
v -3.811189 -0.176969 0.863150
v -3.811189 0.176970 0.863150
v -3.811189 -0.176970 -0.863150
v -3.811189 0.176969 -0.863150
v 3.811189 -0.176969 0.863150
v 3.811189 0.176970 0.863150
v 3.811189 -0.176970 -0.863150
v 3.811189 0.176969 -0.863150
v -3.811189 -0.176969 2.762080
v -3.811189 0.176970 2.762080
v -3.811189 -0.176969 1.035780
v -3.811189 0.176970 1.035780
v 3.811189 -0.176969 2.762080
v 3.811189 0.176970 2.762080
v 3.811189 -0.176969 1.035780
v 3.811189 0.176970 1.035780
v -3.811189 -0.176969 4.661010
v -3.811189 0.176970 4.661010
v -3.811189 -0.176969 2.934710
v -3.811189 0.176970 2.934710
v 3.811189 -0.176969 4.661010
v 3.811189 0.176970 4.661010
v 3.811189 -0.176969 2.934710
v 3.811189 0.176970 2.934710
v -3.811189 -0.176969 6.559940
v -3.811189 0.176971 6.559940
v -3.811189 -0.176969 4.833640
v -3.811189 0.176970 4.833640
v 3.811189 -0.176969 6.559940
v 3.811189 0.176971 6.559940
v 3.811189 -0.176969 4.833640
v 3.811189 0.176970 4.833640
v -3.811189 -0.176968 8.458870
v -3.811189 0.176971 8.458870
v -3.811189 -0.176968 6.732570
v -3.811189 0.176971 6.732570
v 3.811189 -0.176968 8.458870
v 3.811189 0.176971 8.458870
v 3.811189 -0.176968 6.732570
v 3.811189 0.176971 6.732570
v -3.811189 -0.176968 10.357800
v -3.811189 0.176971 10.357800
v -3.811189 -0.176968 8.631500
v -3.811189 0.176971 8.631500
v 3.811189 -0.176968 10.357800
v 3.811189 0.176971 10.357800
v 3.811189 -0.176968 8.631500
v 3.811189 0.176971 8.631500
v -3.811189 -0.176968 12.256729
v -3.811189 0.176972 12.256729
v -3.811189 -0.176968 10.530430
v -3.811189 0.176971 10.530430
v 3.811189 -0.176968 12.256729
v 3.811189 0.176972 12.256729
v 3.811189 -0.176968 10.530430
v 3.811189 0.176971 10.530430
vn -1.000000 0.000000 0.000000
vn 0.000000 0.000000 -1.000000
vn 1.000000 0.000000 0.000000
vn 0.000000 0.000000 1.000000
vn 0.000000 -1.000000 0.000000
vn 0.000000 1.000000 -0.000000
usemtl None
s 1
f 2//1 4//1 3//1 1//1
f 4//2 8//2 7//2 3//2
f 8//3 6//3 5//3 7//3
f 6//4 2//4 1//4 5//4
f 1//5 3//5 7//5 5//5
f 6//6 8//6 4//6 2//6
f 10//1 12//1 11//1 9//1
f 12//2 16//2 15//2 11//2
f 16//3 14//3 13//3 15//3
f 14//4 10//4 9//4 13//4
f 9//5 11//5 15//5 13//5
f 14//6 16//6 12//6 10//6
f 18//1 20//1 19//1 17//1
f 20//2 24//2 23//2 19//2
f 24//3 22//3 21//3 23//3
f 22//4 18//4 17//4 21//4
f 17//5 19//5 23//5 21//5
f 22//6 24//6 20//6 18//6
f 26//1 28//1 27//1 25//1
f 28//2 32//2 31//2 27//2
f 32//3 30//3 29//3 31//3
f 30//4 26//4 25//4 29//4
f 25//5 27//5 31//5 29//5
f 30//6 32//6 28//6 26//6
f 34//1 36//1 35//1 33//1
f 36//2 40//2 39//2 35//2
f 40//3 38//3 37//3 39//3
f 38//4 34//4 33//4 37//4
f 33//5 35//5 39//5 37//5
f 38//6 40//6 36//6 34//6
f 42//1 44//1 43//1 41//1
f 44//2 48//2 47//2 43//2
f 48//3 46//3 45//3 47//3
f 46//4 42//4 41//4 45//4
f 41//5 43//5 47//5 45//5
f 46//6 48//6 44//6 42//6
f 50//1 52//1 51//1 49//1
f 52//2 56//2 55//2 51//2
f 56//3 54//3 53//3 55//3
f 54//4 50//4 49//4 53//4
f 49//5 51//5 55//5 53//5
f 54//6 56//6 52//6 50//6
o Cube.001_Cube.000
v -4.003058 -0.219731 -1.078167
v -4.003058 6.721577 -1.078168
v -4.003058 -0.219731 -1.517629
v -4.003058 6.721577 -1.517630
v -3.563596 -0.219731 -1.078167
v -3.563596 6.721577 -1.078168
v -3.563596 -0.219731 -1.517629
v -3.563596 6.721577 -1.517630
vn -1.000000 0.000000 0.000000
vn 0.000000 -0.000000 -1.000000
vn 1.000000 0.000000 0.000000
vn 0.000000 0.000000 1.000000
vn 0.000000 -1.000000 0.000000
vn 0.000000 1.000000 0.000000
usemtl None
s 1
f 58//7 60//7 59//7 57//7
f 60//8 64//8 63//8 59//8
f 64//9 62//9 61//9 63//9
f 62//10 58//10 57//10 61//10
f 57//11 59//11 63//11 61//11
f 62//12 64//12 60//12 58//12
o Cube.002_Cube.005
v -4.554136 -0.046944 3.890434
v -3.710143 3.282279 2.713191
v -4.554136 -0.046945 -3.890433
v -3.710143 3.282278 -3.890434
v 3.935742 0.047956 2.899143
v 2.766057 2.444229 1.181476
v 3.857383 -0.046945 -2.729516
v 2.984673 2.675685 -1.848069
v 0.000000 2.515939 -2.094160
v 0.000000 -0.046945 -2.754284
v 0.000000 2.634059 1.313701
v 0.000000 -0.046944 3.031368
v -2.801790 4.272168 1.299395
v -3.099191 4.272168 -2.815983
v -0.575134 4.272168 1.079561
v -0.575134 4.272168 -2.366893
v -5.073765 3.694918 -0.588621
v -5.917758 -0.046945 0.000000
v 3.384452 2.352263 -0.528771
v 4.554136 -0.046945 0.000000
v 0.000000 3.046699 -0.528771
v 0.000000 -0.046945 0.000000
v -4.139927 4.684807 -0.772100
v -0.289048 4.684808 -0.629860
v -2.106840 -0.044128 -4.339001
v -1.855072 3.282279 3.044632
v -1.684844 3.285096 -4.008939
v -2.277068 -0.046944 4.492086
v -1.688462 4.272168 1.791131
v -1.837162 4.272168 -2.591438
v -1.762812 4.684808 -0.700980
v -2.277068 -0.046945 0.000000
v 1.692226 2.967291 -2.263303
v 2.277068 -0.046944 3.094334
v 2.277068 -0.046945 -2.923427
v 1.692226 2.949295 1.376667
v 1.692226 3.488598 -0.528771
v 2.277068 -0.046945 0.000000
v 0.888704 -0.046945 -3.513026
v 0.660449 3.104687 1.376667
v 0.660449 3.614395 -0.528771
v 0.660449 3.124784 -2.852902
v 0.888704 -0.046944 3.094334
v 0.888704 -0.046945 0.000000
v 1.692226 3.404088 0.251715
v 0.000000 2.866470 0.651177
v 4.554136 -0.046944 1.307743
v 3.384452 2.352263 0.300849
v 0.660449 3.438262 0.481746
vt 0.414397 0.079684
vt 0.585230 0.072906
vt 0.594646 0.235922
vt 0.400626 0.263671
vt 0.397875 0.468571
vt 0.350985 0.422107
vt 0.403756 0.290016
vt 0.464628 0.335011
vt 0.249504 0.393703
vt 0.200719 0.409717
vt 0.129325 0.276890
vt 0.209605 0.264077
vt 0.161857 0.060293
vt 0.244178 0.095649
vt 0.204631 0.263671
vt 0.100380 0.222809
vt 0.714128 0.372382
vt 0.853130 0.372329
vt 0.843949 0.447451
vt 0.714220 0.480654
vt 0.659941 0.548116
vt 0.751716 0.583231
vt 0.695968 0.658368
vt 0.631896 0.627970
vt 0.879570 0.654694
vt 0.967005 0.724109
vt 0.911465 0.743903
vt 0.854875 0.686493
vt 0.206683 0.683246
vt 0.408194 0.638373
vt 0.360940 0.754461
vt 0.234338 0.787912
vt 0.148016 0.502266
vt 0.111677 0.515495
vt 0.000203 0.413080
vt 0.027650 0.380818
vt 0.677011 0.043250
vt 0.803306 0.033750
vt 0.825282 0.157640
vt 0.707549 0.200631
vt 0.611541 0.683687
vt 0.690376 0.714583
vt 0.680103 0.772868
vt 0.579205 0.772230
vt 0.546071 0.834563
vt 0.408599 0.701863
vt 0.507326 0.688548
vt 0.779242 0.729502
vt 0.732453 0.834563
vt 0.435227 0.600630
vt 0.552969 0.515900
vt 0.566063 0.603837
vt 0.512196 0.630770
vt 0.000203 0.737803
vt 0.095000 0.824728
vt 0.805401 0.603270
vt 0.842155 0.628642
vt 0.808069 0.652355
vt 0.779647 0.633359
vt 0.591601 0.528529
vt 0.567003 0.372373
vt 0.652057 0.480714
vt 0.576269 0.451343
vt 0.288870 0.396152
vt 0.271659 0.267937
vt 0.000203 0.625829
vt 0.162466 0.515900
vt 0.357853 0.531330
vt 0.052818 0.000203
vt 0.000203 0.142143
vt 0.567003 0.306370
vt 0.714117 0.306367
vt 0.872966 0.515900
vt 0.926556 0.515900
vt 0.877880 0.596730
vt 0.833716 0.560625
vt 0.175837 0.461195
vt 0.071450 0.331438
vt 0.960814 0.538385
vt 0.999797 0.598299
vt 0.977745 0.664726
vt 0.906560 0.617788
vt 0.881139 0.306316
vt 0.443153 0.503183
vt 0.525658 0.372668
vt 0.497682 0.515495
vt 0.566597 0.410223
vt 0.714110 0.264114
vt 0.845054 0.264077
vt 0.569995 0.264119
vn -0.844400 0.535600 -0.005800
vn -0.490100 0.438800 -0.753200
vn -0.551000 -0.552500 -0.625400
vn -0.842400 -0.538000 0.029900
vn 0.370200 0.709900 -0.599100
vn 0.581100 0.647100 -0.493600
vn 0.640200 -0.434500 -0.633500
vn 0.261900 -0.636900 -0.725100
vn 0.730700 0.664800 0.155600
vn 0.489400 0.705600 0.512500
vn 0.604600 -0.302400 0.736900
vn 0.861500 -0.456900 0.221500
vn 0.226600 0.564000 0.794100
vn -0.520100 0.579800 0.627100
vn -0.570000 -0.464900 0.677400
vn 0.165000 -0.473800 0.865100
vn 0.003400 -1.000000 0.004300
vn 0.856700 -0.510100 -0.076300
vn 0.319700 0.946900 -0.034700
vn 0.056200 0.554500 -0.830300
vn 0.602000 0.674100 -0.428100
vn 0.624300 0.781100 -0.009700
vn -0.283000 0.958200 -0.041600
vn -0.211800 0.645600 -0.733700
vn -0.000000 -1.000000 -0.000200
vn 0.216900 -0.599600 -0.770300
vn -0.014700 -0.862400 -0.506100
vn -0.000100 -1.000000 -0.000100
vn -0.188300 0.767600 0.612600
vn 0.246700 0.636200 0.731000
vn 0.213600 -0.644100 0.734500
vn -0.086800 -0.500000 0.861700
vn 0.320600 0.385200 -0.865400
vn 0.014200 0.999800 -0.012700
vn 0.185700 0.863500 -0.468900
vn -0.227100 0.866400 -0.444800
vn -0.405500 0.913700 -0.026100
vn -0.226000 0.905400 0.359300
vn 0.598500 0.711900 0.367500
vn 0.194100 0.841500 0.504200
vn -0.268800 0.931700 0.244400
vn 0.302600 0.904600 0.300100
vn 0.132800 -0.478700 0.867900
vn 0.763900 0.639300 -0.088000
vn 0.000000 -1.000000 0.000000
vn 0.314900 0.926600 0.205500
vn 0.216900 0.751100 0.623500
vn 0.321400 0.946000 -0.042100
vn -0.114600 -0.538400 -0.834900
usemtl None_rock
s 1
f 81/1/13 68/2/14 67/3/15 82/4/16
f 97/5/17 72/6/18 71/7/19 99/8/20
f 112/9/21 70/10/22 69/11/23 111/12/24
f 90/13/25 66/14/26 65/15/27 92/16/28
f 102/17/29 99/18/20 71/19/19 84/20/30
f 85/21/31 73/22/32 80/23/33 88/24/34
f 105/25/35 106/26/36 73/27/32 85/28/31
f 96/29/37 89/30/38 74/31/39 86/32/40
f 104/33/41 75/34/42 76/35/43 107/36/44
f 91/37/45 73/38/32 74/39/39 89/40/38
f 95/41/46 94/42/47 78/43/48 87/44/49
f 81/45/13 66/46/26 77/47/50 87/44/49
f 91/48/45 68/49/14 78/43/48 94/42/47
f 90/50/25 75/51/42 79/52/51 93/53/52
f 68/49/14 81/45/13 87/44/49 78/43/48
f 93/53/52 95/41/46 87/44/49 77/47/50
f 92/54/28 96/29/37 86/32/40 76/55/43
f 104/56/41 113/57/53 110/58/54 75/59/42
f 75/51/42 110/60/54 79/52/51
f 98/61/55 102/17/29 84/20/30 111/62/24 69/63/23
f 72/6/18 83/64/56 84/65/30 71/7/19
f 66/14/26 81/1/13 82/4/16 65/15/27
f 65/66/27 82/67/16 96/29/37 92/54/28
f 79/52/51 88/24/34 95/41/46 93/53/52
f 66/46/26 90/50/25 93/53/52 77/47/50
f 73/22/32 91/48/45 94/42/47 80/23/33
f 88/24/34 80/23/33 94/42/47 95/41/46
f 68/2/14 91/37/45 89/40/38 67/3/15
f 82/67/16 67/68/15 89/30/38 96/29/37
f 75/69/42 90/13/25 92/16/28 76/70/43
f 107/71/44 108/72/57 102/17/29 98/61/55
f 70/73/22 112/74/21 109/75/58 100/76/59
f 70/10/22 100/77/59 98/78/55 69/11/23
f 83/79/56 72/80/18 97/81/17 101/82/60
f 108/72/57 103/83/61 99/18/20 102/17/29
f 106/84/36 97/5/17 99/8/20 103/85/61
f 73/86/32 106/84/36 103/85/61 74/87/39
f 86/88/40 74/89/39 103/83/61 108/72/57
f 76/90/43 86/88/40 108/72/57 107/71/44
f 100/76/59 109/75/58 113/57/53 104/56/41
f 100/77/59 104/33/41 107/36/44 98/78/55
f 101/82/60 97/81/17 106/26/36 105/25/35
f 110/60/54 85/21/31 88/24/34 79/52/51
f 109/75/58 101/82/60 105/25/35 113/57/53
f 83/64/56 112/9/21 111/12/24 84/65/30
f 113/57/53 105/25/35 85/28/31 110/58/54
f 112/74/21 83/79/56 101/82/60 109/75/58
